<?xml version="1.0" encoding="utf-8"?>
<!-- Generator: Adobe Illustrator 19.0.0, SVG Export Plug-In . SVG Version: 6.00 Build 0)  -->
<svg version="1.1" xmlns="http://www.w3.org/2000/svg" xmlns:xlink="http://www.w3.org/1999/xlink" x="0px" y="0px"
	 viewBox="0 0 1100 800" style="enable-background:new 0 0 1100 800;" xml:space="preserve">
<style type="text/css">
	.st0{fill:#E8EAED;}
	.st1{fill:#3F3F3F;}
	.st2{fill:#EFBBBB;}
	.st3{fill:#292949;}
	.st4{fill:#B77B70;}
	.st5{fill:#353A85;}
	.st6{fill:#EFACA8;}
	.st7{fill:#5D66D3;}
	.st8{fill:#ABADB2;}
	.st9{fill:#FFFFFF;}
	.st10{fill:#8CABEF;}
	.st11{fill:#F7DDCB;}
	.st12{fill:#F2C7AA;}
	.st13{fill:#AFB5C9;}
	.st14{opacity:6.000000e-002;}
</style>
<g id="background">
</g>
<g id="shadow">
	<path class="st0" d="M313.1,625.6c-45.8,0.5-87.6,5.4-132.8,6.7c-22.9,0.7-97.9-1.1-112.4,11.7c-22.9,20.2,37.6,19,31.4,34.3
		c-1.2,3-5.8,5.1-8.7,7.8c-5,4.7-3.8,11.2,1.6,15.8c23.3,20.3,108.7,14.4,144.6,14.7c207.5,2,415.5,4.4,621.9-2.4
		c44.5-1.4,88.7-3.3,133.1-5c20.3-0.8,45.7-2.8,45.7-7.4c0.2-11.5-38.4,0.6-25.6-22.4c4.1-7.4,25.3-8.9,14.5-21.5
		c-11.8-13.9-39.1-24.7-64.3-28.2c-25.8-3.6-52.2-3-78.4-4.2c-48.1-2.1-96.4-2.5-144.6-2.7c-109.4-0.4-218.8,0.3-328.2,1.4
		C378.2,624.6,345.6,625.2,313.1,625.6z"/>
</g>
<g id="object">
	<g>
		
			<rect x="77.2" y="271.2" transform="matrix(0.999 4.539953e-002 -4.539953e-002 0.999 12.5704 -6.4771)" class="st1" width="143.3" height="4.7"/>
	</g>
	<g>
		
			<rect x="81.9" y="205.2" transform="matrix(0.6004 0.7997 -0.7997 0.6004 233.2819 -51.8242)" class="st1" width="173.2" height="4.7"/>
	</g>
	<g>
		<polygon class="st2" points="640.8,371.8 641.4,361 646.1,360.8 647.3,368.2 649.5,367.1 647.8,376.3 643,377.2 		"/>
		<polygon class="st3" points="701.2,414.7 666.9,411.7 650,371.1 640.6,374.2 649.5,430.3 703.1,440 		"/>
	</g>
	<g>
		<polygon class="st4" points="209.9,350.8 208.3,340 203.6,340.2 203.1,347.7 200.8,346.8 203.2,355.9 208.1,356.3 		"/>
		<polygon class="st5" points="142.6,403.7 192,394 200.6,350.9 210.2,353.1 207.5,413 158.1,429.5 		"/>
	</g>
	<g>
		<g>
			<g>
				<path class="st3" d="M347.7,676.2c-1.1-1.2-2.3-1.8-3.7-1.6c-1.3,0.2-2.5,1.1-3.1,2.3c-0.4,0.8-0.5,1.8-0.5,2.7
					c-0.4,4.7-0.4,15.8,5.9,17.4c2.6,0.7,4.8-1.2,5.5-3.5C352.8,689.9,351.3,680.1,347.7,676.2z"/>
				<path class="st6" d="M349.9,605.6l-0.3,28.5c0.4,12.7-1.6,25.4-1.2,38.1c0.1,2.9,0.8,6,0.1,8.9c-0.7,2.8-3,3.3-5.4,1.9
					c-3.2-1.9-2.6-6.4-3.2-9.7c-1.4-9-3.1-17.9-4.6-26.9c-0.7-4.4,0.8-10.6,0.5-15l-4.6-23.9L349.9,605.6z"/>
			</g>
			<polygon class="st3" points="317.3,559.5 329.7,614.7 332.4,666.8 352.1,666.3 357.4,520.6 319.2,521.3 			"/>
			<g>
				<g>
					<path class="st3" d="M375.9,675.2c-1.1-1.1-2.4-1.7-3.7-1.4c-1.3,0.3-2.5,1.3-3,2.5c-0.3,0.9-0.4,1.8-0.4,2.7
						c-0.2,4.7,0.3,15.8,6.6,17.1c2.6,0.5,4.7-1.5,5.3-3.9C381.6,688.6,379.6,678.9,375.9,675.2z"/>
					<path class="st6" d="M365.5,609.6l1.7,28.5c0.1,7.9,1.2,15.8,2,23.6c0.8,7.3-0.4,14.9,3.4,21.6c1.2,2.1,3.6,3.5,5.3,0.9
						c1.3-2,0.5-5.2,0.8-7.4c1-9,2.3-18,3.4-27.1c0.5-4.4-1.3-10.5-1.2-15l3.5-24.1L365.5,609.6z"/>
				</g>
				<polygon class="st3" points="390.4,556.1 392,609.7 383.6,663.9 363.6,664.5 364.5,605.8 353.9,557.2 350.3,525.4 382.1,521.7 
									"/>
			</g>
			<polygon class="st7" points="365.3,412 331,411.2 311.2,448.1 318.2,482.7 319.5,524.1 368.3,524.8 384.4,522.2 380.1,478 
				382.6,418.9 			"/>
			<polygon class="st6" points="319.6,507.8 318,513.6 326,520.1 332.2,517.3 333.9,510.6 329,508.7 329.2,507.1 327.9,505.4 			"/>
			<polygon class="st7" points="331.1,412.5 289.2,458.4 282.9,477 317.1,512.9 327.5,505.9 305.6,475.9 326.5,460.4 			"/>
			<polygon class="st8" points="364,434.4 381.8,470.1 401.1,473.9 438.1,442.6 429.9,433.2 397,451.6 379.6,418.9 			"/>
			<g>
				<path class="st6" d="M363.1,383.3c-5.2-15-25-9.4-29.1,4c-2.7,8.7,4.1,20,13.1,22.5c0,0.3,0.1,0.7,0.1,0.9
					c0,1.4,0.2,2.8,0.4,4.2c0.1,0.5,8-1,8.9-1.2c0.3-0.1,0.7-0.1,0.8-0.4c0.3-0.5-0.2-2-0.3-2.5c-0.1-0.7-0.1-1.3-0.2-2
					c4.5-2.2,7.3-6.8,8.1-11.5C365.7,392.7,364.7,387.8,363.1,383.3z"/>
				<g>
					<path d="M350.2,369.8c-1.1,1.1-1.5,2.6-1.8,4c-0.2,0.9-0.3,1.8-0.2,2.6c0.7,3.4,4.1,3.2,6.7,4.3c3.2,1.4,6,3.8,7.8,6.7
						c2.8,4.5,1.6,10.3,0.4,15.2c-0.4,1.7-1.2,4.3,0.1,5.9c1.4,1.6,4.6,1.3,6.2,0.5c1.5-0.7,2.7-2.1,4.4-2.4
						c1.8-0.3,4.1,0.5,4.9-1.1c0.2-0.4,0.2-1,0.5-1.4c1-1.4,3.4,0.2,4.7-0.7c0.8-0.6,0.8-1.9,0.5-2.9c-0.3-1-0.8-2-0.6-3.1
						c0.2-0.9,0.8-1.6,1.2-2.4c0.8-1.6,0.5-3.7-0.7-5c-2.2-2.5-6.3-2-8.6-4.4c-1.2-1.2-1.7-3-2.1-4.7c-0.4-1.7-1-3.4-2.3-4.6
						c-1.6-1.4-3.9-1.2-5.5-2.8c-0.9-1-1.5-2.2-2.6-3.1c-1.4-1.1-4-2-5.7-2.5C355.2,367.2,352.2,367.7,350.2,369.8z"/>
					<path d="M337.7,393.7c-0.1,4.9,2.4,10.3,0.1,14.6c-2.3,4.4-8,5.2-12.9,5.4c-0.8,0-11.1,0.9-11.1,0.7c-0.8-3.4-1.6-7-3.4-10
						c-1.8-3-4.8-5.5-8.3-5.7c1-0.2,1.5-1.4,1.4-2.4c-0.1-1-0.6-2-1-2.9c-0.8-2.4,0-5.2,1.8-6.9c3.6-3.4,10.2-2,13.4-5.9
						c1.9-2.4,1.7-5.9,2.7-8.9c2-5.7,8.2-6.9,12.9-9.5c4.9-2.7,9.6-4.2,15.3-3.3c7.1,1.2,12.3,8.4,9.6,15.1
						c-3.5,8.7-17.4,7.9-20.1,16.7C337.8,391.8,337.7,392.7,337.7,393.7z"/>
				</g>
			</g>
		</g>
		<polygon class="st9" points="341.2,411.8 351.8,426.9 356.8,426.4 365.1,411.2 		"/>
	</g>
	<g>
		
			<rect x="764.5" y="146.7" transform="matrix(0.9912 0.1321 -0.1321 0.9912 27.151 -111.1354)" class="st1" width="173.4" height="4.7"/>
	</g>
	<g>
		
			<rect x="158.1" y="376" transform="matrix(0.7293 0.6841 -0.6841 0.7293 335.0772 -90.3378)" class="st1" width="247.3" height="4.7"/>
	</g>
	<g>
		
			<rect x="743.6" y="222.2" transform="matrix(0.8277 0.5612 -0.5612 0.8277 277.3503 -454.1104)" class="st1" width="268.9" height="4.7"/>
	</g>
	<g>
		<path class="st5" d="M185.4,536.5c-0.8-8.4-1.7-16.9-2.7-25.3c-2.1-16.8-4.9-33.6-9.7-49.8c-1.8-6.2-3.9-12.3-6-18.5
			c-2.6-7.5-5.1-14.9-7.7-22.4c-3.2-9.3-8.6-15.8-18-19c-1.7-0.6-3.4-1-5.3-1.4c0,0.2-0.1,0.4-0.1,0.6c-0.1,0.9-0.4,1.9-0.9,2.5
			l6.2,0.1c0,0,17.4,60.9,18.1,71.4c0.2,4,1.1,12.7,2,21.9l9.5,1.4l0.4,35.1c0.5,0.2,1.1,0.3,1.6,0.4c3,0.8,5.4,3,7.9,4.7
			C184.3,540.6,185.9,541.6,185.4,536.5z"/>
		<path class="st5" d="M111.8,495.7c1.7-8.6,3.1-16.5,3.2-20.8c0.4-12.9,2-55.5,2-55.5l8-16.3l1.5,0c-0.1,0-0.2,0-0.3,0
			c0.1-1.4,0.1-2.5-0.1-3.6c-14,0.8-28.3,8.2-32.3,21.8c-0.3,1.1-0.6,2.3-0.7,3.4c-0.6,7,1.6,12.1-0.4,19.2
			c-1.8,6.1-3.3,12.3-4.5,18.5c-1.7,9-3.2,18-4.5,27c-1.4,9.9-2.3,19.8-2.6,29.7c0,1.1-0.2,4.1-0.4,7.8c-0.3,7.6-0.1,17.8,3.1,18.2
			c0.6,0.1,1.2-0.2,1.7-0.5c4.1-2,7.4-4.6,11-6.9l0.2-39.7L111.8,495.7z"/>
		<path class="st5" d="M145.6,527.7c-0.7,0.1-1.4,0.1-2.1,0.2l-6.8,65.1l7.3,94.7h0.1v-1.4h12.2l15.4-105.5l-0.6-47.8
			c-7.4-2.1-15.4-5.4-23-5.3C147.2,527.6,146.4,527.7,145.6,527.7z"/>
		<path class="st5" d="M161.2,496.5c1.4,14.5,3.1,30.2,3.1,30.2s-7.6,0.2-18.7,1c0.8,0,1.6,0,2.5,0c7.7-0.1,15.7,3.2,23,5.3
			l-0.4-35.1L161.2,496.5z"/>
		<polygon class="st3" points="144.1,687.7 144.1,692.8 157.1,699.3 163.6,692.8 157.1,686.3 156.2,686.3 156,687.7 		"/>
		<polygon class="st3" points="144.1,687.7 156,687.7 156.2,686.3 144.1,686.3 		"/>
		<path class="st5" d="M126.5,529.5c-0.3,0-0.6,0.1-0.9,0.1c-7.7,1.7-12.8,2.3-16,2.5c-3.1,0.8-6.2,1.9-9.1,3.2
			c-1.4,0.7-2.8,1.4-4,2.2l0,8.3l14.8,140.4h12.1v1.4h0.1l13.3-94.2l0.1-0.5l-0.3-3.9L126.5,529.5z"/>
		<path class="st5" d="M109.6,532.1c-5.3,0.3-5.9-0.7-5.9-0.7s4.8-19.1,8.1-35.7l-15.1,2.2l-0.2,39.7c1.3-0.8,2.6-1.6,4-2.2
			C103.4,534,106.5,532.9,109.6,532.1z"/>
		<path class="st5" d="M126.5,529.5l9.9,59.5l0.3,3.9l6.8-65.1C138.4,528.3,132.6,528.8,126.5,529.5z"/>
		<polygon class="st3" points="111.2,686.3 110.3,686.3 103.8,692.8 110.3,699.3 123.3,692.8 123.3,687.7 111.4,687.7 		"/>
		<polygon class="st3" points="111.2,686.3 111.4,687.7 123.3,687.7 123.3,686.3 		"/>
		<path class="st9" d="M134.2,403.8c-0.5,0.2-1.1,0.1-1.6,0c-2-0.2-4.1-0.5-6.1-0.7l-1.5,0l-8,16.3c0,0-1.7,42.6-2,55.5
			c-0.1,4.3-1.5,12.2-3.2,20.8l8.9-1.3l-0.7-3.9l4.8,0.7l-0.3-0.6l2-78.6l-1.3-5.1c-0.4-1.4,0.7-2.8,2.2-2.8h8
			c1.9,0,2.9,2.1,1.8,3.6l-3.3,4.3l8.6,79.1l5-0.7l-0.4,4l14.2,2.1c-0.9-9.2-1.7-17.9-2-21.9c-0.6-10.5-18.1-71.4-18.1-71.4
			l-6.2-0.1c-0.1,0.1-0.1,0.2-0.2,0.2C134.6,403.6,134.4,403.7,134.2,403.8z"/>
		<path class="st9" d="M143.5,527.8c0.7-0.1,1.4-0.1,2.1-0.2c-0.7,0-1.4,0-2.1,0.1L143.5,527.8z"/>
		<path class="st9" d="M143.5,527.7c0.7,0,1.4,0,2.1-0.1c11.1-0.8,18.7-1,18.7-1s-1.7-15.7-3.1-30.2l-14.2-2.1L143.5,527.7z"/>
		<polygon class="st9" points="124.8,491.1 120,490.4 120.6,494.3 126.2,493.5 		"/>
		<path class="st9" d="M119.2,530.2c-3.2,0.5-6.5,1.1-9.6,1.9c3.3-0.2,8.3-0.8,16-2.5c0.3,0,0.6-0.1,0.9-0.1l-0.1-0.4
			C124,529.4,121.6,529.8,119.2,530.2z"/>
		<polygon class="st9" points="141.5,493.6 147,494.4 147.4,490.4 142.4,491.1 142.6,492.5 		"/>
		<path class="st9" d="M126.4,529.1l-5.8-34.8l-8.9,1.3c-3.3,16.6-8.1,35.7-8.1,35.7s0.7,1,5.9,0.7c3.2-0.8,6.4-1.4,9.6-1.9
			C121.6,529.8,124,529.4,126.4,529.1z"/>
		<path class="st9" d="M126.4,529.1l0.1,0.4c6-0.7,11.8-1.3,17-1.7l0-0.1C137.8,527.9,132.1,528.4,126.4,529.1z"/>
		<path class="st9" d="M143.5,527.7l3.5-33.4l-5.5-0.8l-9.7,9.5l-5.6-9.6l-5.5,0.8l5.8,34.8C132.1,528.4,137.8,527.9,143.5,527.7z"
			/>
		<path class="st10" d="M142.4,491.1l-8.6-79.1l3.3-4.3c1.1-1.5,0.1-3.6-1.8-3.6h-8c-1.5,0-2.5,1.4-2.2,2.8l1.3,5.1l-2,78.6l0.3,0.6
			l8.9,1.3L142.4,491.1z"/>
		<polygon class="st10" points="133.7,492.4 124.8,491.1 126.2,493.5 		"/>
		<polygon class="st10" points="141.5,493.6 142.6,492.5 142.4,491.1 133.7,492.4 		"/>
		<polygon class="st10" points="126.2,493.5 131.8,503.1 141.5,493.6 133.7,492.4 		"/>
		<path class="st4" d="M136.1,400.1c0.8-3.4,4.6-5,6.6-8c2.3-3.5,3.5-7.5,4.1-11.6c0-0.1,0-0.1,0-0.2c-0.3,0.2-0.6,0.3-0.9,0.4
			c-0.4-1.6,0.4-3.3,0.7-5c0.1-0.4,0.1-0.8,0.1-1.3c-2.9-0.5-5.9-1.6-8.1-2.5c-4.5-2-13.2-4-17.9-1.7c-3.7,1.8-2.6,7.7-2.4,11.4
			c0,0.9,0.1,1.9-0.1,2.8c-0.2,0.9-0.8,1.6-1.2,2.4c0.4,1.4,1.1,2.8,2.2,4c3,3.3,6,5,6.8,8.7C129.4,399.3,132.9,399.5,136.1,400.1z"
			/>
		<path class="st4" d="M126.1,403c0.1,0,0.2,0,0.3,0l8.6,0.1c0.6-0.6,0.8-1.6,0.9-2.5c0-0.2,0.1-0.4,0.1-0.6
			c-3.2-0.6-6.6-0.8-10.1-0.6C126.2,400.5,126.3,401.7,126.1,403z"/>
		<path class="st4" d="M132.6,403.8c0.5,0.1,1.1,0.1,1.6,0c0.3-0.1,0.5-0.2,0.7-0.4c0.1-0.1,0.1-0.1,0.2-0.2l-8.6-0.1
			C128.5,403.3,130.5,403.6,132.6,403.8z"/>
		<path class="st3" d="M146.9,374.4c0.4,1.9,0.2,3.9-0.1,5.8c2-1.1,3.4-3.3,4.2-5.6C149.7,374.8,148.3,374.7,146.9,374.4z"/>
		<path class="st3" d="M146.9,374.4c-0.1,0-0.1,0-0.2,0c0,0.4,0,0.9-0.1,1.3c-0.4,1.7-1.1,3.3-0.7,5c0.3-0.1,0.6-0.3,0.9-0.4
			C147,378.3,147.3,376.3,146.9,374.4z"/>
		<path class="st3" d="M116.8,375.4c0.1-1.5,0.1-3,0.8-4.3c1.1-2.3,3.6-3.6,6.1-4.4c6.3-1.9,13.4-1.5,18.9,2.1
			c1.5,0.9,2.8,2.1,3.6,3.7c0.1,0.2,0.2,0.5,0.3,0.7c-0.4-1.8-1.2-3.6-0.9-4.9c0.4-1.9,3-2.3,4.4-1.2c1,0.7,1.6,2.1,1.7,3.4
			c0.1,1.3-0.2,2.6-0.6,3.9c0,0.1-0.1,0.2-0.1,0.3c0.9-0.1,1.7-0.3,2.5-0.6c3.9-1.7,7.1-8.6,7-12.8c-0.1-2-0.8-3.7-2.6-4.9
			c-1.5-1-3.3-1.9-4.2-3.5c-0.7-1.3-0.8-2.8-1.5-4.1c-1.3-2.3-4.1-3-6.5-3.8c-6.1-2-9.4-4.2-15.8-1.7c-4.6,1.8-10.5,2-14.8,4.6
			c-1.8,1.1-3.3,2.8-4.5,4.8c-4.3,6.7-5.3,16.2-2.5,23.2c0.6,1.6,1.4,3,2.3,4.4c1.7,2.8,3.5,6.2,6.5,7.5c0-0.3,0.2-0.6,0.3-0.9
			C116.1,383.2,116.7,379.2,116.8,375.4z"/>
		<path class="st3" d="M118.4,381.5c-0.2-3.7-1.3-9.5,2.4-11.4c4.7-2.3,13.4-0.2,17.9,1.7c2.2,0.9,5.1,2,8.1,2.5
			c0-0.4-0.1-0.7-0.2-1.1c-0.1-0.3-0.2-0.5-0.3-0.7c-0.8-1.6-2.2-2.7-3.6-3.7c-5.5-3.5-12.7-4-18.9-2.1c-2.5,0.8-5,2-6.1,4.4
			c-0.6,1.3-0.7,2.8-0.8,4.3c-0.2,3.7-0.8,7.7,0.2,11.3c0.4-0.8,1-1.4,1.2-2.4C118.5,383.4,118.4,382.4,118.4,381.5z"/>
		<path class="st3" d="M151.8,370.5c-0.1-1.3-0.7-2.6-1.7-3.4c-1.4-1-4-0.6-4.4,1.2c-0.3,1.3,0.6,3.1,0.9,4.9
			c0.1,0.4,0.3,0.8,0.3,1.2c1.4,0.2,2.9,0.3,4.2,0.2c0-0.1,0.1-0.2,0.1-0.3C151.6,373.1,151.9,371.8,151.8,370.5z"/>
		<path class="st3" d="M146.5,373.3c0.1,0.4,0.1,0.8,0.2,1.1c0.1,0,0.1,0,0.2,0C146.8,374,146.7,373.7,146.5,373.3z"/>
	</g>
	<g>
		<g>
			<path class="st3" d="M930.4,388c-2.7,4.3-1.4,9.9-0.2,14.6c0.5,1.9,1.3,4.7-0.6,6.1c-2.1,1.6-5.6,0.1-6.7-2
				c-0.8-1.4-0.8-3.1-0.9-4.7c-0.1-7.2-0.2-17.2,2.5-23.9c2.2-5.3,12-12.9,17.8-7.3c1.1,1,1.5,2.5,1.8,3.9c0.2,0.8,0.4,1.7,0.2,2.5
				c-0.7,3.3-4,3.1-6.5,4.2C934.8,382.8,932.1,385.2,930.4,388z"/>
			<path class="st11" d="M936.6,408.6c-4.4-2-7.3-6.5-8.1-11c-0.8-4.5,0.1-9.2,1.5-13.5c4.9-14.4,24.4-9.2,28.6,3.6
				C962.2,398.8,949.5,414.5,936.6,408.6z"/>
			<path class="st3" d="M955.6,394.2c-0.4,1.8-0.1,4-0.4,5.8c-0.6,3.5-2.7,7.6-2.4,11c3.5,0.6,8.3-0.2,11.5-1.7
				c3.3-1.6,4-5.2,5.6-8.5c1.5-3.1,3.2-6.1,4.1-9.4c4.6-18.2-10.1-33.6-28.4-30.5c-6.9,1.2-12,8.1-9.2,14.6c3,7,13.3,7.6,17.6,13.4
				C955,390.2,955.5,392.1,955.6,394.2z"/>
		</g>
		<path class="st11" d="M936.6,407.3c-0.1,1.4-0.3,2.7-0.4,4.1c-0.1,0.6-0.6,2.3-0.3,2.9c0.2,0.3,0.5,0.4,0.8,0.4
			c0.9,0.2,8.6,1.6,8.7,1c0.2-1.6,0.4-3.2,0.4-4.7c0-1.3,0.5-3.5,0.2-4.6c-1.6,0.6-3.1,0.8-4.7,0.8c-1.6,0-3.2,0-4.7-0.1
			C936.6,407.1,936.6,407.2,936.6,407.3z"/>
	</g>
	<g>
		<polygon class="st3" points="879.1,522.2 873.7,521.2 868.3,528.9 871.4,534.3 877.7,535.4 880,527.6 		"/>
		<polygon class="st3" points="930,425.5 905.3,425.4 897.4,480.5 873.6,519.8 880.2,527.5 911.6,495.9 		"/>
	</g>
	<path class="st3" d="M921.8,681.5c0.9-1.5,2.1-2.5,3.8-2.6c1.6-0.1,3.1,0.6,4.1,1.8c0.6,0.8,0.9,1.8,1.2,2.8
		c1.6,5,4.3,17.2-2.3,20.5c-2.8,1.3-5.7-0.2-7-2.6C919.4,697.7,918.8,686.6,921.8,681.5z"/>
	<path class="st12" d="M933.8,603.7l-0.9,32c0.2,14.2-2.3,28.5-2.1,42.8c0,3.3,0.9,6.7,0,10c-0.9,3.2-3.5,3.7-6.2,2
		c-3.6-2.2-2.9-7.2-3.5-10.9c-1.5-10.1-3.3-20.2-4.9-30.3c-0.8-4.9,1.1-11.8,0.8-16.8l-4.9-26.9L933.8,603.7z"/>
	<path class="st3" d="M944.5,682.7c1.2-1.4,2.5-2.1,4.2-2c1.5,0.2,3,1.1,3.7,2.5c0.5,0.9,0.6,1.9,0.7,3c0.7,5.2,1.2,17.7-5.9,19.8
		c-3,0.9-5.6-1.1-6.5-3.7C939.3,698.4,940.6,687.3,944.5,682.7z"/>
	<path class="st12" d="M938.3,603.7l1.8,32c0.2,14.2,3.1,28.4,3.4,42.7c0,3.3-0.7,6.8,0.3,10c1,3.1,3.6,3.6,6.3,1.9
		c3.5-2.3,2.7-7.3,3.1-11c1.2-10.1,2.7-20.3,4-30.4c0.6-5-1.4-11.8-1.3-16.8l4.1-27.1L938.3,603.7z"/>
	<path class="st13" d="M954.6,413.2l-28.9,1.7L910,426.7c0,0,1.6,49.3,1,67.6c-0.6,18.3-1.8,33.1-3.4,59.8
		c-1.7,29.4,5.8,64.8,5.8,64.8l61-0.9c0,0,12.4-66.9,6-84.3c-6.4-17.3-2.6-34.6-2.8-48.8c-0.2-14.2-6.2-61.8-6.2-61.8L954.6,413.2z"
		/>
	<path class="st3" d="M968.2,416.9l14.8,12.2c0,0-6.3,54.6-6.5,63.7c-0.3,9.1,4.7,35.9,4.7,35.9l-21.5-2c0,0-9.9-14.5-12.3-33.6
		c-2.3-19.1,10.5-80.5,10.5-80.5L968.2,416.9z"/>
	<path class="st3" d="M915.5,417.7l-11.1,7.7c0,0,5.1,59.4,5.6,68.4c0.5,9-7,37.9-7,37.9l23.6-4.5c0,0,8.8-14.7,10.5-34
		c1.6-19.2-12.2-80.2-12.2-80.2L915.5,417.7z"/>
	<g>
		<polygon class="st3" points="1012.2,370.8 1018.6,373 1026.5,364 1023.6,356.6 1016.1,354.3 1011.9,363.9 		"/>
		<polygon class="st3" points="958.3,442 1001.5,428.1 1023.2,370.5 1010.3,367.3 984.8,411.1 958.5,416.7 		"/>
	</g>
	<g>
		
			<rect x="473.2" y="265" transform="matrix(0.5697 0.8219 -0.8219 0.5697 526.0757 -222.5382)" class="st1" width="4.7" height="252.2"/>
	</g>
	<g>
		
			<rect x="345" y="250.2" transform="matrix(0.8498 0.5271 -0.5271 0.8498 203.9232 -210.6391)" class="st1" width="253.2" height="4.7"/>
	</g>
	<g>
		
			<rect x="178.1" y="297.9" transform="matrix(0.9955 9.446920e-002 -9.446920e-002 0.9955 30.0617 -34.4705)" class="st1" width="402" height="4.7"/>
	</g>
	<g>
		
			<rect x="667.7" y="95.7" transform="matrix(0.6843 0.7292 -0.7292 0.6843 378.0897 -416.4439)" class="st1" width="4.7" height="265.4"/>
	</g>
	<g>
		
			<rect x="548.5" y="400.3" transform="matrix(0.838 0.5457 -0.5457 0.838 333.3725 -317.4551)" class="st1" width="305.6" height="4.7"/>
	</g>
	<g>
		
			<rect x="786.6" y="97" transform="matrix(3.261876e-002 0.9995 -0.9995 3.261876e-002 1069.8357 -491.6577)" class="st1" width="4.7" height="419.6"/>
	</g>
	<circle class="st5" cx="562.2" cy="300.3" r="126.5"/>
	<circle class="st10" cx="359.4" cy="171.6" r="59.3"/>
	<path class="st7" d="M151.4,276.8c0-37.2,30.2-67.4,67.4-67.4s70.8,30.2,70.8,67.4c0,37.2-33.6,67.4-70.8,67.4
		S151.4,314,151.4,276.8z"/>
	<circle class="st5" cx="380.9" cy="462.9" r="53.2"/>
	<circle class="st7" cx="765.2" cy="142.1" r="58.8"/>
	<circle class="st7" cx="829.3" cy="479.2" r="64"/>
	<circle class="st10" cx="989.4" cy="300" r="72.6"/>
	<circle class="st5" cx="937.1" cy="160.5" r="35.9"/>
	<circle class="st5" cx="120" cy="138.3" r="35.9"/>
	<circle class="st10" cx="77.3" cy="270.2" r="39.3"/>
	<circle class="st7" cx="187" cy="453.6" r="43.9"/>
	<g>
		<polygon class="st4" points="133.5,465 140.4,464.6 144.3,459.9 145.8,460.3 145.4,462 149.8,459.1 154.1,459.5 156.9,464.5 
			156,470.3 150.8,472.6 144.1,471.8 134.6,472.9 		"/>
		<polygon class="st5" points="137.1,461.7 99.3,462.7 107,404.6 81.2,430.1 77.3,483.7 91.2,491.2 142.8,474.8 		"/>
	</g>
	<g>
		<path class="st3" d="M674.4,422.6l10.2-9.9l27.5,1.8c0,0,2.8,19.6,15.3,63.4c12.5,43.8-5.8,99.5-5.8,99.5s-70.9-16.9-85.1-19.6
			l17.8-80L674.4,422.6z"/>
		<polygon class="st3" points="697,528 697,543.6 676.2,611.2 681.4,681.4 668.4,684 647.6,598.2 648.4,573 658,521.5 		"/>
		<polygon class="st3" points="680.5,546.5 701.4,689.5 710.9,689.5 716.9,611.5 729.9,533.5 		"/>
		<polygon points="670.1,682.7 660.2,693.2 663.1,698.5 683.6,688.7 679.8,680.9 		"/>
		<polygon points="701.6,687.5 689.4,695.2 690.8,701 713.1,696.6 711.4,688.2 		"/>
		<g>
			<path class="st4" d="M697.2,372.3c5.8,6.1,16.3,6.3,21.3,13.2c3.2,4.5,3.1,10.9,0.7,16c-1.1,2.4-2.8,4.6-5,5.9
				c-1.5,0.9-3.1,1.3-4.8,1.6c-2.2,0.3-4.5,0.2-6.6-0.2c-0.4,2-0.6,4-0.6,6c-3.9-1.5-9-0.3-12.9-1.8c0.9-2.2,3-7.2,3.9-9.5
				c-0.8-0.8-1.6-1.7-2.2-2.7c-3.9-6-4-14.3-0.4-20.6C692.3,377.2,694.7,374.7,697.2,372.3z"/>
			<polygon class="st3" points="697,375.7 718.3,390.9 708.7,409.1 718,409.7 737.2,383.1 710.6,357.7 692.5,353.9 686.7,361.2 
				690.8,377.9 			"/>
		</g>
		<path class="st9" d="M683.4,413.8l37.2,0.1c0,0,5.4,12.8,17.9,56.5c12.5,43.8-5.8,99.5-5.8,99.5s-63.4-31.3-77.6-34.1l10.3-65.5
			L683.4,413.8z"/>
		<path class="st3" d="M739.1,471.4c-12.5-43.8-18.4-57.5-18.4-57.5l-36.1-1.3l-0.1,0.2c0.7,1.8,1.4,3.6,2,5.4
			c2.5,7.2,4.3,14.5,5.4,22c2,13.1,2.2,26.7,1.7,39.9c-0.4,12.7-1.7,25.4-4,38c-3,16.6-7.8,32.7-13.9,48.4
			c28.8,5.8,62.7,12.8,62.7,12.8S751.6,515.1,739.1,471.4z"/>
		<path class="st5" d="M670,481.5c-1.4,5.9-2.9,12.5-1.7,18.3c0,0,3.9,8.1,4.2,7.7c0-0.3,4.4-3.9,5.6-6.6c2.1-4.6,2.5-10.4,2.6-15.6
			c0.2-18.4-0.9-37,2.2-55.2c3.6-1.1,6.7-3.8,4.5-7.6c-7.1,2.7-7.8,18.6-9.4,25.1C675.3,459,672.7,470.3,670,481.5z"/>
	</g>
	<polygon class="st6" points="434.8,445.3 437.6,440.1 431.2,431.9 424.5,433.3 421.4,439.5 425.8,442.4 425.2,443.9 426.1,445.8 	
		"/>
	<path class="st9" d="M654,261.5c-5-11.9-12.2-22.5-21.4-31.7c-9.2-9.2-19.8-16.3-31.7-21.4c-12.3-5.2-25.3-7.8-38.8-7.8
		c-13.5,0-26.5,2.6-38.8,7.8c-11.9,5-22.5,12.2-31.7,21.4c-9.2,9.2-16.3,19.8-21.4,31.7c-5.2,12.3-7.8,25.3-7.8,38.8
		c0,13.5,2.6,26.5,7.8,38.8c5,11.9,12.2,22.5,21.4,31.7c9.2,9.2,19.8,16.3,31.7,21.4c12.3,5.2,25.3,7.8,38.8,7.8
		c13.5,0,26.5-2.6,38.8-7.8c11.9-5,22.5-12.2,31.7-21.4c9.2-9.2,16.3-19.8,21.4-31.7c5.2-12.3,7.8-25.3,7.8-38.8
		C661.9,286.8,659.2,273.8,654,261.5z M513.7,297.2c0-7.8,0.9-15.4,2.6-22.9h40.8v47.4h-40.5C514.7,313.7,513.7,305.5,513.7,297.2z
		 M587.2,231.7c7.2,8.4,12.9,17.6,17,27.3c0.8,1.8,1.5,3.6,2.1,5.4h-39.1v-51.1C571.9,216.5,579.6,222.7,587.2,231.7z M557.2,214.2
		v50.2h-37.8c0.6-1.7,1.3-3.5,2-5.2c4.1-9.6,9.7-18.8,16.9-27.2C545.3,223.7,552.4,217.7,557.2,214.2z M557.2,331.8v53.8
		c-4.8-4.1-11.7-10.8-18.5-19.6c-7.2-9.3-13-19.2-17.2-29.5c-0.6-1.6-1.2-3.2-1.8-4.7H557.2z M567.2,386.7v-55H606
		c-0.5,1.5-1.1,3-1.7,4.6c-4.1,10.2-9.8,20.1-17,29.4C579.7,375.6,572,382.7,567.2,386.7z M567.2,321.8v-47.4h42.1
		c1.8,7.4,2.6,15,2.6,22.9c0,8.3-1,16.5-3,24.6H567.2z M619.6,274.3h28.5c2.5,8.3,3.8,17,3.8,25.9c0,7.3-0.9,14.5-2.6,21.5h-30
		c1.8-8.1,2.7-16.3,2.7-24.6C622,289.4,621.2,281.8,619.6,274.3z M625.6,236.9c8,8,14.4,17.3,18.8,27.4h-27.4
		c-1-3.2-2.1-6.3-3.4-9.3c-4.5-10.6-10.8-20.7-18.6-29.9c-4.1-4.8-8.1-8.8-11.8-12.1C599,216.8,613.7,225,625.6,236.9z M498.8,236.9
		c12.3-12.3,27.7-20.6,44.3-24.2c-3.8,3.4-8,7.5-12.3,12.5c-7.9,9.2-14.1,19.2-18.6,29.9c-1.3,3.1-2.4,6.2-3.4,9.3H480
		C484.5,254.2,490.8,244.9,498.8,236.9z M476.3,274.3h29.8c-1.6,7.4-2.4,15.1-2.4,22.9c0,8.3,0.9,16.5,2.7,24.6h-31.3
		c-1.7-6.9-2.6-14.1-2.6-21.5C472.5,291.4,473.8,282.6,476.3,274.3z M498.8,363.7c-9.2-9.2-16.1-20-20.6-31.9h30.9
		c0.9,2.9,1.9,5.7,3.1,8.5c4.5,11.1,10.7,21.8,18.5,31.9c5.1,6.6,10.2,12,14.6,16.2C527.8,385,511.7,376.5,498.8,363.7z
		 M625.6,363.7c-12.5,12.5-27.9,20.8-44.8,24.3c4.3-4.2,9.2-9.5,14.2-15.8c7.8-10.1,14.1-20.8,18.5-31.9c1.1-2.8,2.2-5.6,3.1-8.5
		h29.6C641.7,343.6,634.8,354.5,625.6,363.7z"/>
	<g>
		<path class="st9" d="M1045,292.1c-6-10.1-18.5-14.9-29.8-11.8c0,0,0,0-0.1,0c-3.5,1.3-6.4,3.7-7.6,7.6c-0.3,0.9-1.6,0.5-1.3-0.4
			c1.3-4.2,4.4-6.9,8-8.3c-4-12.6-16.1-21.4-29.5-20.5c-13.1,1-23.8,10.9-26.3,23.7c1.1,0.3,2.2,0.6,3.2,1.1
			c4.2,1.9,7.4,5.2,9.7,9.1c0.5,0.8-0.7,1.5-1.2,0.7c-0.8-1.3-1.6-2.5-2.6-3.6c-3.7-4.1-9-6.6-14.6-6.4c-5.7,0.3-11.7,3.3-15.6,7.4
			c-4.4,4.7-6.7,11.1-6.1,17.6c0.6,6.3,3.9,12.2,9,16c4.7,3.5,10.2,5.1,16.1,5.4c3.8,0.1,7.7,0.2,11.5,0.3c11,0.1,22,0.2,32.9,0.2
			c4.8,0,9.6,0,14.5,0c4,0,8.1,0.3,12-0.4c12.8-2.5,22.4-14.2,21.2-27.4C1048.1,298.8,1046.9,295.2,1045,292.1z"/>
	</g>
	<path class="st9" d="M243.4,294c-4.3-1.7-9-0.7-12.1,2.3l-21.9-12.4c1.5-4.3,1.1-8.8-0.7-12.6l20.6-13.6c1.3,1.3,2.8,2.3,4.6,3
		c7,2.8,15.1-0.6,17.9-7.6c2.8-7-0.6-15.1-7.6-17.9c-7-2.8-15.1,0.6-17.9,7.6c-1.2,3-1.3,6.2-0.4,9.1l-21.2,14
		c-1.4-1.2-3-2.2-4.7-2.9c-8.5-3.4-18.2,0.7-21.6,9.2c-3.4,8.5,0.7,18.2,9.2,21.6c6.5,2.6,13.7,0.8,18.2-4l22.1,12.5
		c-1.1,5.4,1.7,11,7,13.1c5.9,2.4,12.6-0.5,15-6.4C252.1,303.1,249.3,296.4,243.4,294z"/>
	<g>
		<g>
			<circle class="st9" cx="828.2" cy="505.9" r="12.8"/>
			<path class="st14" d="M837.6,499c0.5,1.6,0.7,3.4,0.6,5.1c-0.2,2.7-1.2,5.3-3,7.3c-1.9,2.1-4.3,3.5-6.8,4.1
				c-1.3,0.3-2.6,0.4-3.9,0.4c0,0-0.1,0-0.1,0c0.6,0.5,1.3,0.9,2.1,1.2c5,2,10.9-0.9,13.1-6.5C841.1,506.3,840.2,501.8,837.6,499z"
				/>
		</g>
		<g>
			<path class="st9" d="M852,498.2c-10.2-9.1-21.2-11.9-32.8-8.3c-8.9,2.7-14.7,8.2-14.7,8.2l-6.6-6.7c0.3-0.3,7.5-7,18.4-10.4
				c10.3-3.2,26-4,42,10.3L852,498.2z"/>
		</g>
		<g>
			<path class="st9" d="M862.7,488.1c-8.2-7.4-16.9-11.9-25.8-13.6c-7.1-1.3-14.4-0.8-21.8,1.5c-12.8,4-21.2,11.9-21.3,12l-6.6-6.6
				c0.4-0.4,10.1-9.5,25-14.2c8.9-2.8,17.8-3.4,26.4-1.8c10.7,2,21,7.3,30.5,15.8L862.7,488.1z"/>
		</g>
		<g>
			<path class="st9" d="M873.4,477.9c-10.6-9.5-21.9-15.5-33.6-17.7c-9.3-1.7-18.8-1.1-28.5,1.8c-16.8,5.1-28,15.7-28.1,15.8
				l-6.6-6.6c0.5-0.5,12.7-12,31.5-17.8c11.2-3.5,22.3-4.2,33.2-2.2c13.5,2.5,26.4,9.2,38.4,20L873.4,477.9z"/>
		</g>
	</g>
	<g>
		<polygon class="st4" points="616,393.8 611.9,383.4 616.3,381.4 620.6,388 622.3,386.1 624.7,395.4 620.4,398 		"/>
		<polygon class="st3" points="708.5,427.6 662.6,431.9 624.9,392 616.7,397.6 647,450.4 708.5,460.6 		"/>
	</g>
	<path class="st9" d="M404.9,431.5c-3.3-2.1-7.5-2.1-11-0.3c-0.8,0.4-1.5,0.8-2.3,1.2c-4,2.1-8,4.3-11.9,6.4c-3,1.6-6,3.2-8.9,4.8
		c-2.7,1.5-4.8,3.9-5.5,6.9c-0.7,2.9-0.2,5.7,1.1,8.3c-1.6,0.9-3.2,1.7-4.8,2.6c-3,1.6-6,3.2-8.9,4.8c-2.7,1.5-4.8,3.9-5.5,6.9
		c-0.8,3-0.2,5.9,1.2,8.6c1,1.9,2.1,3.9,3.1,5.8c0.9,1.7,1.8,3.6,3.1,5.1c2.6,2.9,6.8,4.2,10.6,3.3c1.5-0.3,2.7-1,4-1.7
		c7.1-3.8,14.3-7.7,21.4-11.5c0.2-0.1,0.4-0.2,0.6-0.3c3.5-1.9,5.8-5.6,5.8-9.7c0-2-0.7-3.7-1.5-5.5c0.3-0.2,0.6-0.3,1-0.5
		c4.1-2.2,8.2-4.4,12.4-6.7c0.2-0.1,0.4-0.2,0.6-0.3c3.5-1.9,5.8-5.6,5.8-9.7c0-2.5-1-4.6-2.2-6.8c-1.1-2.1-2.2-4.1-3.3-6.2
		C408.4,434.9,407.1,432.9,404.9,431.5z M396.9,435.2C396.9,435.2,396.8,435.2,396.9,435.2L396.9,435.2z M378.8,457.8
		C378.9,457.8,378.9,457.8,378.8,457.8c0.3-0.1,0.6-0.2,0.9-0.2c0.1,0,0.3,0,0.4-0.1c0,0,0.1,0,0.1,0c0,0,0.1,0,0.1,0
		c0.4,0,0.7,0,1.1,0c0,0,0.4,0,0.4,0c0.1,0,0.2,0,0.2,0c0.5,0.1,0.9,0.2,1.3,0.4c0,0,0,0,0,0c0,0,0.1,0,0.1,0.1
		c0.2,0.1,0.4,0.2,0.6,0.3c0.1,0.1,0.8,0.6,0.6,0.4c0.3,0.2,0.5,0.5,0.7,0.7c0.1,0.1,0.2,0.2,0.3,0.3c0,0,0.2,0.3,0.3,0.4
		c0.8,1.3,1.5,2.8,2.3,4.2c0.2,0.3,0.3,0.6,0.5,0.9c-0.1,0.1-0.3,0.2-0.4,0.2c-0.1,0-0.2,0.1-0.2,0.1c-1.3,0.7-2.5,1.4-3.8,2
		c-0.2,0.1-0.4,0.2-0.6,0.3c-0.2,0.1-0.5,0.2-0.7,0.3c0.1-0.1-0.6,0.2-0.8,0.2c-0.2,0.1-0.4,0.1-0.6,0.1c0,0-0.1,0-0.1,0
		c0,0,0,0,0,0c-0.5,0-0.9,0-1.4,0c0,0-0.1,0-0.2,0c-0.2,0-0.3-0.1-0.5-0.1c-0.3-0.1-0.7-0.2-1-0.3c0,0-0.1,0-0.1,0
		c0,0-0.1,0-0.1-0.1c-0.1-0.1-0.3-0.1-0.4-0.2c-0.2-0.1-0.4-0.2-0.5-0.3c-0.1-0.1-0.2-0.1-0.2-0.2c0,0,0,0,0,0
		c-0.3-0.3-0.6-0.6-0.8-0.9c0-0.1-0.1-0.1-0.1-0.2c0,0-0.2-0.3-0.3-0.4c-0.1-0.2-0.2-0.4-0.4-0.6c-0.8-1.5-1.6-2.9-2.4-4.4
		c1.3-0.7,2.5-1.4,3.8-2.1c0.4-0.2,0.7-0.4,1.1-0.6c0.1,0,0.1-0.1,0.2-0.1C378.3,458,378.6,457.9,378.8,457.8z M378.7,457.9
		C378.7,457.9,378.6,457.9,378.7,457.9L378.7,457.9z M391.1,469.6c0.1,0.1,0.1,0.2,0.2,0.3c0.1,0.2,0.2,0.4,0.3,0.6c0,0,0,0,0,0.1
		c0,0,0,0,0,0c0.1,0.5,0.2,0.9,0.3,1.4c0,0,0,0.1,0,0.2c0,0.2,0,0.3,0,0.5c0,0.3,0,0.6-0.1,0.9c0,0-0.1,0.4-0.1,0.4
		c0,0.1-0.1,0.3-0.1,0.4c-0.1,0.2-0.1,0.4-0.2,0.6c0,0.1-0.1,0.2-0.1,0.2c0,0,0,0,0,0.1c-0.2,0.3-0.4,0.7-0.6,1
		c0,0.1-0.1,0.1-0.1,0.2c0,0-0.3,0.3-0.3,0.3c-0.3,0.3-0.5,0.5-0.8,0.7c0,0-0.1,0.1-0.1,0.1c0,0-0.1,0-0.1,0.1
		c-0.2,0.1-0.4,0.2-0.6,0.3c-6.3,3.4-12.6,6.8-18.9,10.2c-1.3,0.7-2.5,1.4-3.8,2c-0.2,0.1-0.4,0.2-0.6,0.3c-0.2,0.1-0.5,0.2-0.7,0.3
		c0.1-0.1-0.6,0.2-0.8,0.2c-0.2,0.1-0.4,0.1-0.6,0.1c0,0-0.1,0-0.1,0c0,0,0,0,0,0c-0.5,0-0.9,0-1.4,0c0,0-0.1,0-0.2,0
		c-0.2,0-0.3-0.1-0.5-0.1c-0.3-0.1-0.7-0.2-1-0.3c0,0-0.1,0-0.1,0c0,0-0.1,0-0.1-0.1c-0.1-0.1-0.3-0.1-0.4-0.2
		c-0.2-0.1-0.4-0.2-0.5-0.3c-0.1-0.1-0.2-0.1-0.2-0.2c0,0,0,0,0,0c-0.3-0.3-0.6-0.6-0.8-0.9c-0.1-0.1-0.1-0.1-0.1-0.2
		c0,0-0.2-0.3-0.3-0.4c-0.1-0.2-0.2-0.4-0.4-0.6c-0.9-1.7-1.8-3.4-2.8-5.1c-0.7-1.4-1.5-2.7-2.2-4.1c-0.1-0.1-0.1-0.3-0.2-0.4
		c0,0,0-0.1-0.1-0.1c0,0,0-0.1,0-0.1c-0.1-0.4-0.2-0.7-0.3-1.1c0-0.1-0.1-0.5-0.1-0.4c0-0.1,0-0.2,0-0.3c0-0.2,0-0.4,0-0.5
		c0-0.1,0.1-0.6,0.1-0.6c0.1-0.3,0.1-0.6,0.2-0.9c0.1-0.2,0.1-0.3,0.2-0.5c0,0,0.1-0.1,0.1-0.2c0.1-0.3,0.3-0.6,0.5-0.8
		c0.1-0.1,0.2-0.3,0.3-0.4c0,0,0.3-0.3,0.4-0.4c0.3-0.3,0.5-0.5,0.8-0.7c0,0,0.1-0.1,0.1-0.1c0.2-0.1,0.4-0.2,0.6-0.3
		c0,0,0.1-0.1,0.1-0.1c0.3-0.2,0.7-0.4,1-0.6c1.5-0.8,2.9-1.6,4.4-2.4c2.8-1.5,5.5-3,8.3-4.5c0,0,0,0.1,0,0.1l0,0l0.2,0.3l0,0
		c0.2,0.4,0.5,0.9,0.7,1.3c0.9,1.7,1.8,3.6,3.1,5.1c2.6,2.9,6.8,4.2,10.6,3.3c1.5-0.3,2.7-1,4-1.7c1.1-0.6,2.2-1.2,3.3-1.8
		C390.8,469.8,390.9,469.7,391.1,469.6L391.1,469.6z M406.4,441.8c0.9,1.7,1.9,3.5,2.8,5.2c0.1,0.1,0.1,0.2,0.2,0.3
		c0.1,0.2,0.2,0.4,0.3,0.6c0,0,0,0,0,0.1c0,0,0,0,0,0c0.1,0.5,0.2,0.9,0.3,1.4c0,0,0,0.1,0,0.2c0,0.2,0,0.3,0,0.5
		c0,0.3,0,0.6-0.1,0.9c0,0-0.1,0.4-0.1,0.4c0,0.1-0.1,0.3-0.1,0.4c-0.1,0.2-0.1,0.4-0.2,0.6c0,0.1-0.1,0.2-0.1,0.2c0,0,0,0,0,0.1
		c-0.2,0.3-0.4,0.7-0.6,1c0,0.1-0.1,0.1-0.1,0.2c0,0-0.3,0.3-0.3,0.3c-0.3,0.3-0.5,0.5-0.8,0.7c0,0-0.1,0.1-0.1,0.1
		c0,0-0.1,0-0.1,0.1c-0.2,0.1-0.4,0.2-0.6,0.3c-4.3,2.3-8.6,4.7-13,7c-0.3,0.2-0.6,0.3-0.9,0.5c-0.6-1.1-1.1-2.1-1.7-3.2
		c-1.2-2.2-2.5-4.2-4.7-5.6c-3.3-2.1-7.5-2.1-11-0.3c-0.8,0.4-1.5,0.8-2.3,1.2c-0.9,0.5-1.8,1-2.8,1.5c-0.1-0.2-0.2-0.3-0.3-0.5
		c-0.1-0.1-0.1-0.3-0.2-0.4c0,0,0-0.1-0.1-0.1c0,0,0-0.1,0-0.1c-0.1-0.4-0.2-0.7-0.3-1.1c0-0.1-0.1-0.5-0.1-0.4c0-0.1,0-0.2,0-0.3
		c0-0.2,0-0.4,0-0.5c0-0.1,0.1-0.6,0.1-0.6c0.1-0.3,0.1-0.6,0.2-0.9c0.1-0.2,0.1-0.3,0.2-0.5c0,0,0.1-0.1,0.1-0.2
		c0.1-0.3,0.3-0.6,0.5-0.8c0.1-0.1,0.2-0.3,0.3-0.4c0,0,0.3-0.3,0.4-0.4c0.3-0.3,0.5-0.5,0.8-0.7c0,0,0.1-0.1,0.1-0.1
		c0.2-0.1,0.4-0.2,0.6-0.3c0,0,0.1-0.1,0.1-0.1c0.3-0.2,0.7-0.4,1-0.6c1.5-0.8,2.9-1.6,4.4-2.4c4-2.2,8-4.3,12-6.5
		c1.5-0.8,3-1.6,4.5-2.4c0.4-0.2,0.7-0.4,1.1-0.6c0.1,0,0.1-0.1,0.2-0.1c0.3-0.1,0.5-0.3,0.8-0.4c0,0,0,0,0.1,0
		c0.3-0.1,0.6-0.2,0.9-0.2c0.1,0,0.3,0,0.4-0.1c0,0,0.1,0,0.1,0c0,0,0.1,0,0.1,0c0.4,0,0.7,0,1.1,0c0,0,0.4,0,0.4,0
		c0.1,0,0.2,0,0.2,0c0.5,0.1,0.9,0.2,1.3,0.4c0,0,0,0,0,0c0,0,0.1,0,0.1,0.1c0.2,0.1,0.4,0.2,0.6,0.3c0.1,0.1,0.8,0.6,0.6,0.4
		c0.3,0.2,0.5,0.5,0.7,0.7c0.1,0.1,0.2,0.2,0.3,0.3c0,0,0.2,0.3,0.3,0.4C405,438.9,405.7,440.4,406.4,441.8z"/>
	<g>
		<path class="st9" d="M377,136.1c-2-2.7-4.8-4.7-8-5.7c-2.2-0.7-4.4-0.7-6.5-0.7h-6.2c-2.9,0-5.4,0.5-7.7,1.7c-3,1.4-5.5,4-7,7
			c-1.1,2.2-1.7,4.6-1.7,7.2v32.6h4.9v-32.7c0-1.3,0.1-2.2,0.6-3.5c0.3-1,1.1-2.5,1.8-3.3c0.9-1.1,1.8-1.9,3.1-2.6
			c1.2-0.7,2.3-1.1,3.9-1.4c0.1,0,0.3,0,0.8-0.1c0.2,0,0.5,0,0.7,0h8.6c1.3,0,2.2,0.1,3.5,0.6c1,0.3,2.5,1.1,3.3,1.8
			c1.1,0.9,1.9,1.8,2.6,3.1c0.7,1.2,1.1,2.3,1.4,3.9c0,0.1,0,0.3,0.1,0.8c0,0.2,0,0.5,0,0.7v32.7h4.9v-32.7
			C380.2,142,379.1,138.8,377,136.1z"/>
		<g>
			<path class="st9" d="M334.4,165.9v35.5c0,4.8,3.9,8.7,8.7,8.7h32.7c4.8,0,8.7-3.9,8.7-8.7v-35.5H334.4z M361.1,188.7v8.6
				c0,0.6-0.7,1.2-1.7,1.2h0c-0.9,0-1.7-0.5-1.7-1.2v-8.6c-2.8-0.7-4.9-3.3-4.9-6.4c0-3.6,2.9-6.6,6.6-6.6s6.6,2.9,6.6,6.6
				C366,185.3,363.9,187.9,361.1,188.7z"/>
		</g>
	</g>
	<g>
		<g>
			<g>
				<path class="st9" d="M771,107.6l-0.8-3.5c-1.2-0.2-2.5-0.3-3.7-0.3c-1.2,0-2.5,0-3.7,0.1l-1,3.5c-1.1,3.9-6.1,5.1-8.9,2.1
					l-2.4-2.7c-2.3,0.9-4.5,2.1-6.5,3.5l0.9,3.5c1,4-2.8,7.5-6.7,6.2l-3.4-1.1c-1.5,2-2.8,4.1-3.9,6.3l2.5,2.6
					c2.9,2.9,1.4,7.9-2.7,8.7l-3.5,0.8c-0.2,1.2-0.3,2.5-0.3,3.7c0,1.2,0,2.5,0.1,3.7l3.5,1c3.9,1.1,5.1,6.1,2.1,8.9l-2.7,2.4
					c0.9,2.3,2.1,4.5,3.5,6.5l3.5-0.9c4-1,7.5,2.8,6.2,6.7l-1.1,3.4c2,1.5,4.1,2.8,6.3,3.9l2.6-2.5c2.9-2.9,7.9-1.4,8.7,2.7l0.8,3.5
					c1.2,0.2,2.5,0.3,3.7,0.3c1.2,0,2.5,0,3.7-0.1l1-3.5c1.1-3.9,6.1-5.1,8.9-2.1l2.4,2.7c2.3-0.9,4.5-2.1,6.5-3.5l-0.9-3.5
					c-1-4,2.8-7.5,6.7-6.2l3.4,1.1c1.5-2,2.8-4.1,3.9-6.3l-2.5-2.6c-2.9-2.9-1.4-7.9,2.7-8.7l3.5-0.8c0.2-1.2,0.3-2.5,0.3-3.7
					c0-1.2,0-2.5-0.1-3.7l-3.5-1c-3.9-1.1-5.1-6.1-2.1-8.9l2.7-2.4c-0.9-2.3-2.1-4.5-3.5-6.5l-3.5,0.9c-4,1-7.5-2.8-6.2-6.7l1.1-3.4
					c-2-1.5-4.1-2.8-6.3-3.9l-2.6,2.5C776.8,113.1,771.8,111.6,771,107.6z M781,142.7c-0.3,8.7-7.6,15.5-16.2,15.2
					c-8.7-0.3-15.5-7.6-15.2-16.2c0.3-8.7,7.6-15.5,16.2-15.2C774.4,126.7,781.3,134,781,142.7z"/>
			</g>
		</g>
	</g>
	<path class="st9" d="M215.7,450.2c0-11.2-12.9-20.3-28.7-20.3s-28.7,9.1-28.7,20.3c0,7.1,5.1,13.3,12.9,16.9l16,17.8l-2.7-14.5
		c0.8,0,1.6,0.1,2.4,0.1C202.9,470.5,215.7,461.4,215.7,450.2z M175,453.4c-2.5,0-2.5-3.9,0-3.9C177.5,449.5,177.5,453.4,175,453.4z
		 M200.4,449.5c2.5,0,2.5,3.9,0,3.9C197.9,453.4,197.9,449.5,200.4,449.5z M188.4,449.5c2.5,0,2.5,3.9,0,3.9
		C185.9,453.4,185.9,449.5,188.4,449.5z"/>
</g>
</svg>
